# xmcd
#
# Track frame offsets: 
#        150
#        15439
#        32291
#        52079
#        69663
#        89352
#        105576
#        122628
#        141480
#        163481
#        181282
#        196858
#
# Disc length: 2878 seconds
#
# Revision: 0
# Processed by: cddbd v1.5.2PL0 Copyright (c) Steve Scherf et al.
# Submitted via: ExactAudioCopyFreeDBPlugin 1.0
#
DISCID=a30b3c0c
DTITLE=รวมศิลปิน - ซูซู คารบาว 2 ผู้ยิ่งใหญ่ แผ่น 1
DYEAR=1900
DGENRE=ไทยเพื่อชีวิต
TTITLE0=ซูซู - อับดุลเลาะห์
TTITLE1=ซูซู - ยับเยิน
TTITLE2=ซูซู - ปะการัง
TTITLE3=ซูซู - ใครสักคน
TTITLE4=ซูซู - อ้อล้อ
TTITLE5=ซูซู - บ่อสร้างกางจ้อง
TTITLE6=ซูซู - มยุรา
TTITLE7=ซูซู - ม้งลงแดง
TTITLE8=ซูซู - ลำเดิน
TTITLE9=ซูซู - เนียงลออ
TTITLE10=ซูซู - ล่อนจ้อน
TTITLE11=ซูซู - กอดขวด
EXTD=
EXTT0=
EXTT1=
EXTT2=
EXTT3=
EXTT4=
EXTT5=
EXTT6=
EXTT7=
EXTT8=
EXTT9=
EXTT10=
EXTT11=
PLAYORDER=
